<?xml version="1.0" encoding="UTF-8"?>
<svg xmlns="http://www.w3.org/2000/svg" width="250" height="250" viewBox="0 0 250 250">
<rect x="0" y="0" width="250" height="250" rx="12" ry="12" fill="#ffffff"/>
<rect x="24.390" y="24.390" width="6.098" height="6.098" fill="#000000"/>
<rect x="30.488" y="24.390" width="6.098" height="6.098" fill="#000000"/>
<rect x="36.585" y="24.390" width="6.098" height="6.098" fill="#000000"/>
<rect x="42.683" y="24.390" width="6.098" height="6.098" fill="#000000"/>
<rect x="48.780" y="24.390" width="6.098" height="6.098" fill="#000000"/>
<rect x="54.878" y="24.390" width="6.098" height="6.098" fill="#000000"/>
<rect x="60.976" y="24.390" width="6.098" height="6.098" fill="#000000"/>
<rect x="85.366" y="24.390" width="6.098" height="6.098" fill="#000000"/>
<rect x="91.463" y="24.390" width="6.098" height="6.098" fill="#000000"/>
<rect x="109.756" y="24.390" width="6.098" height="6.098" fill="#000000"/>
<rect x="121.951" y="24.390" width="6.098" height="6.098" fill="#000000"/>
<rect x="128.049" y="24.390" width="6.098" height="6.098" fill="#000000"/>
<rect x="134.146" y="24.390" width="6.098" height="6.098" fill="#000000"/>
<rect x="152.439" y="24.390" width="6.098" height="6.098" fill="#000000"/>
<rect x="164.634" y="24.390" width="6.098" height="6.098" fill="#000000"/>
<rect x="182.927" y="24.390" width="6.098" height="6.098" fill="#000000"/>
<rect x="189.024" y="24.390" width="6.098" height="6.098" fill="#000000"/>
<rect x="195.122" y="24.390" width="6.098" height="6.098" fill="#000000"/>
<rect x="201.220" y="24.390" width="6.098" height="6.098" fill="#000000"/>
<rect x="207.317" y="24.390" width="6.098" height="6.098" fill="#000000"/>
<rect x="213.415" y="24.390" width="6.098" height="6.098" fill="#000000"/>
<rect x="219.512" y="24.390" width="6.098" height="6.098" fill="#000000"/>
<rect x="24.390" y="30.488" width="6.098" height="6.098" fill="#000000"/>
<rect x="60.976" y="30.488" width="6.098" height="6.098" fill="#000000"/>
<rect x="79.268" y="30.488" width="6.098" height="6.098" fill="#000000"/>
<rect x="85.366" y="30.488" width="6.098" height="6.098" fill="#000000"/>
<rect x="109.756" y="30.488" width="6.098" height="6.098" fill="#000000"/>
<rect x="128.049" y="30.488" width="6.098" height="6.098" fill="#000000"/>
<rect x="140.244" y="30.488" width="6.098" height="6.098" fill="#000000"/>
<rect x="146.341" y="30.488" width="6.098" height="6.098" fill="#000000"/>
<rect x="152.439" y="30.488" width="6.098" height="6.098" fill="#000000"/>
<rect x="158.537" y="30.488" width="6.098" height="6.098" fill="#000000"/>
<rect x="182.927" y="30.488" width="6.098" height="6.098" fill="#000000"/>
<rect x="219.512" y="30.488" width="6.098" height="6.098" fill="#000000"/>
<rect x="24.390" y="36.585" width="6.098" height="6.098" fill="#000000"/>
<rect x="36.585" y="36.585" width="6.098" height="6.098" fill="#000000"/>
<rect x="42.683" y="36.585" width="6.098" height="6.098" fill="#000000"/>
<rect x="48.780" y="36.585" width="6.098" height="6.098" fill="#000000"/>
<rect x="60.976" y="36.585" width="6.098" height="6.098" fill="#000000"/>
<rect x="73.171" y="36.585" width="6.098" height="6.098" fill="#000000"/>
<rect x="91.463" y="36.585" width="6.098" height="6.098" fill="#000000"/>
<rect x="97.561" y="36.585" width="6.098" height="6.098" fill="#000000"/>
<rect x="109.756" y="36.585" width="6.098" height="6.098" fill="#000000"/>
<rect x="115.854" y="36.585" width="6.098" height="6.098" fill="#000000"/>
<rect x="121.951" y="36.585" width="6.098" height="6.098" fill="#000000"/>
<rect x="140.244" y="36.585" width="6.098" height="6.098" fill="#000000"/>
<rect x="146.341" y="36.585" width="6.098" height="6.098" fill="#000000"/>
<rect x="158.537" y="36.585" width="6.098" height="6.098" fill="#000000"/>
<rect x="164.634" y="36.585" width="6.098" height="6.098" fill="#000000"/>
<rect x="182.927" y="36.585" width="6.098" height="6.098" fill="#000000"/>
<rect x="195.122" y="36.585" width="6.098" height="6.098" fill="#000000"/>
<rect x="201.220" y="36.585" width="6.098" height="6.098" fill="#000000"/>
<rect x="207.317" y="36.585" width="6.098" height="6.098" fill="#000000"/>
<rect x="219.512" y="36.585" width="6.098" height="6.098" fill="#000000"/>
<rect x="24.390" y="42.683" width="6.098" height="6.098" fill="#000000"/>
<rect x="36.585" y="42.683" width="6.098" height="6.098" fill="#000000"/>
<rect x="42.683" y="42.683" width="6.098" height="6.098" fill="#000000"/>
<rect x="48.780" y="42.683" width="6.098" height="6.098" fill="#000000"/>
<rect x="60.976" y="42.683" width="6.098" height="6.098" fill="#000000"/>
<rect x="79.268" y="42.683" width="6.098" height="6.098" fill="#000000"/>
<rect x="97.561" y="42.683" width="6.098" height="6.098" fill="#000000"/>
<rect x="103.659" y="42.683" width="6.098" height="6.098" fill="#000000"/>
<rect x="109.756" y="42.683" width="6.098" height="6.098" fill="#000000"/>
<rect x="115.854" y="42.683" width="6.098" height="6.098" fill="#000000"/>
<rect x="121.951" y="42.683" width="6.098" height="6.098" fill="#000000"/>
<rect x="128.049" y="42.683" width="6.098" height="6.098" fill="#000000"/>
<rect x="134.146" y="42.683" width="6.098" height="6.098" fill="#000000"/>
<rect x="140.244" y="42.683" width="6.098" height="6.098" fill="#000000"/>
<rect x="146.341" y="42.683" width="6.098" height="6.098" fill="#000000"/>
<rect x="152.439" y="42.683" width="6.098" height="6.098" fill="#000000"/>
<rect x="164.634" y="42.683" width="6.098" height="6.098" fill="#000000"/>
<rect x="170.732" y="42.683" width="6.098" height="6.098" fill="#000000"/>
<rect x="182.927" y="42.683" width="6.098" height="6.098" fill="#000000"/>
<rect x="195.122" y="42.683" width="6.098" height="6.098" fill="#000000"/>
<rect x="201.220" y="42.683" width="6.098" height="6.098" fill="#000000"/>
<rect x="207.317" y="42.683" width="6.098" height="6.098" fill="#000000"/>
<rect x="219.512" y="42.683" width="6.098" height="6.098" fill="#000000"/>
<rect x="24.390" y="48.780" width="6.098" height="6.098" fill="#000000"/>
<rect x="36.585" y="48.780" width="6.098" height="6.098" fill="#000000"/>
<rect x="42.683" y="48.780" width="6.098" height="6.098" fill="#000000"/>
<rect x="48.780" y="48.780" width="6.098" height="6.098" fill="#000000"/>
<rect x="60.976" y="48.780" width="6.098" height="6.098" fill="#000000"/>
<rect x="73.171" y="48.780" width="6.098" height="6.098" fill="#000000"/>
<rect x="79.268" y="48.780" width="6.098" height="6.098" fill="#000000"/>
<rect x="85.366" y="48.780" width="6.098" height="6.098" fill="#000000"/>
<rect x="91.463" y="48.780" width="6.098" height="6.098" fill="#000000"/>
<rect x="97.561" y="48.780" width="6.098" height="6.098" fill="#000000"/>
<rect x="109.756" y="48.780" width="6.098" height="6.098" fill="#000000"/>
<rect x="115.854" y="48.780" width="6.098" height="6.098" fill="#000000"/>
<rect x="134.146" y="48.780" width="6.098" height="6.098" fill="#000000"/>
<rect x="140.244" y="48.780" width="6.098" height="6.098" fill="#000000"/>
<rect x="146.341" y="48.780" width="6.098" height="6.098" fill="#000000"/>
<rect x="170.732" y="48.780" width="6.098" height="6.098" fill="#000000"/>
<rect x="182.927" y="48.780" width="6.098" height="6.098" fill="#000000"/>
<rect x="195.122" y="48.780" width="6.098" height="6.098" fill="#000000"/>
<rect x="201.220" y="48.780" width="6.098" height="6.098" fill="#000000"/>
<rect x="207.317" y="48.780" width="6.098" height="6.098" fill="#000000"/>
<rect x="219.512" y="48.780" width="6.098" height="6.098" fill="#000000"/>
<rect x="24.390" y="54.878" width="6.098" height="6.098" fill="#000000"/>
<rect x="60.976" y="54.878" width="6.098" height="6.098" fill="#000000"/>
<rect x="73.171" y="54.878" width="6.098" height="6.098" fill="#000000"/>
<rect x="103.659" y="54.878" width="6.098" height="6.098" fill="#000000"/>
<rect x="109.756" y="54.878" width="6.098" height="6.098" fill="#000000"/>
<rect x="115.854" y="54.878" width="6.098" height="6.098" fill="#000000"/>
<rect x="128.049" y="54.878" width="6.098" height="6.098" fill="#000000"/>
<rect x="134.146" y="54.878" width="6.098" height="6.098" fill="#000000"/>
<rect x="140.244" y="54.878" width="6.098" height="6.098" fill="#000000"/>
<rect x="182.927" y="54.878" width="6.098" height="6.098" fill="#000000"/>
<rect x="219.512" y="54.878" width="6.098" height="6.098" fill="#000000"/>
<rect x="24.390" y="60.976" width="6.098" height="6.098" fill="#000000"/>
<rect x="30.488" y="60.976" width="6.098" height="6.098" fill="#000000"/>
<rect x="36.585" y="60.976" width="6.098" height="6.098" fill="#000000"/>
<rect x="42.683" y="60.976" width="6.098" height="6.098" fill="#000000"/>
<rect x="48.780" y="60.976" width="6.098" height="6.098" fill="#000000"/>
<rect x="54.878" y="60.976" width="6.098" height="6.098" fill="#000000"/>
<rect x="60.976" y="60.976" width="6.098" height="6.098" fill="#000000"/>
<rect x="73.171" y="60.976" width="6.098" height="6.098" fill="#000000"/>
<rect x="85.366" y="60.976" width="6.098" height="6.098" fill="#000000"/>
<rect x="97.561" y="60.976" width="6.098" height="6.098" fill="#000000"/>
<rect x="109.756" y="60.976" width="6.098" height="6.098" fill="#000000"/>
<rect x="121.951" y="60.976" width="6.098" height="6.098" fill="#000000"/>
<rect x="134.146" y="60.976" width="6.098" height="6.098" fill="#000000"/>
<rect x="146.341" y="60.976" width="6.098" height="6.098" fill="#000000"/>
<rect x="158.537" y="60.976" width="6.098" height="6.098" fill="#000000"/>
<rect x="170.732" y="60.976" width="6.098" height="6.098" fill="#000000"/>
<rect x="182.927" y="60.976" width="6.098" height="6.098" fill="#000000"/>
<rect x="189.024" y="60.976" width="6.098" height="6.098" fill="#000000"/>
<rect x="195.122" y="60.976" width="6.098" height="6.098" fill="#000000"/>
<rect x="201.220" y="60.976" width="6.098" height="6.098" fill="#000000"/>
<rect x="207.317" y="60.976" width="6.098" height="6.098" fill="#000000"/>
<rect x="213.415" y="60.976" width="6.098" height="6.098" fill="#000000"/>
<rect x="219.512" y="60.976" width="6.098" height="6.098" fill="#000000"/>
<rect x="103.659" y="67.073" width="6.098" height="6.098" fill="#000000"/>
<rect x="109.756" y="67.073" width="6.098" height="6.098" fill="#000000"/>
<rect x="115.854" y="67.073" width="6.098" height="6.098" fill="#000000"/>
<rect x="121.951" y="67.073" width="6.098" height="6.098" fill="#000000"/>
<rect x="128.049" y="67.073" width="6.098" height="6.098" fill="#000000"/>
<rect x="134.146" y="67.073" width="6.098" height="6.098" fill="#000000"/>
<rect x="152.439" y="67.073" width="6.098" height="6.098" fill="#000000"/>
<rect x="164.634" y="67.073" width="6.098" height="6.098" fill="#000000"/>
<rect x="30.488" y="73.171" width="6.098" height="6.098" fill="#000000"/>
<rect x="48.780" y="73.171" width="6.098" height="6.098" fill="#000000"/>
<rect x="60.976" y="73.171" width="6.098" height="6.098" fill="#000000"/>
<rect x="73.171" y="73.171" width="6.098" height="6.098" fill="#000000"/>
<rect x="79.268" y="73.171" width="6.098" height="6.098" fill="#000000"/>
<rect x="97.561" y="73.171" width="6.098" height="6.098" fill="#000000"/>
<rect x="109.756" y="73.171" width="6.098" height="6.098" fill="#000000"/>
<rect x="121.951" y="73.171" width="6.098" height="6.098" fill="#000000"/>
<rect x="128.049" y="73.171" width="6.098" height="6.098" fill="#000000"/>
<rect x="140.244" y="73.171" width="6.098" height="6.098" fill="#000000"/>
<rect x="146.341" y="73.171" width="6.098" height="6.098" fill="#000000"/>
<rect x="152.439" y="73.171" width="6.098" height="6.098" fill="#000000"/>
<rect x="158.537" y="73.171" width="6.098" height="6.098" fill="#000000"/>
<rect x="170.732" y="73.171" width="6.098" height="6.098" fill="#000000"/>
<rect x="176.829" y="73.171" width="6.098" height="6.098" fill="#000000"/>
<rect x="189.024" y="73.171" width="6.098" height="6.098" fill="#000000"/>
<rect x="195.122" y="73.171" width="6.098" height="6.098" fill="#000000"/>
<rect x="207.317" y="73.171" width="6.098" height="6.098" fill="#000000"/>
<rect x="24.390" y="79.268" width="6.098" height="6.098" fill="#000000"/>
<rect x="30.488" y="79.268" width="6.098" height="6.098" fill="#000000"/>
<rect x="36.585" y="79.268" width="6.098" height="6.098" fill="#000000"/>
<rect x="42.683" y="79.268" width="6.098" height="6.098" fill="#000000"/>
<rect x="48.780" y="79.268" width="6.098" height="6.098" fill="#000000"/>
<rect x="73.171" y="79.268" width="6.098" height="6.098" fill="#000000"/>
<rect x="79.268" y="79.268" width="6.098" height="6.098" fill="#000000"/>
<rect x="91.463" y="79.268" width="6.098" height="6.098" fill="#000000"/>
<rect x="103.659" y="79.268" width="6.098" height="6.098" fill="#000000"/>
<rect x="109.756" y="79.268" width="6.098" height="6.098" fill="#000000"/>
<rect x="134.146" y="79.268" width="6.098" height="6.098" fill="#000000"/>
<rect x="146.341" y="79.268" width="6.098" height="6.098" fill="#000000"/>
<rect x="164.634" y="79.268" width="6.098" height="6.098" fill="#000000"/>
<rect x="176.829" y="79.268" width="6.098" height="6.098" fill="#000000"/>
<rect x="201.220" y="79.268" width="6.098" height="6.098" fill="#000000"/>
<rect x="207.317" y="79.268" width="6.098" height="6.098" fill="#000000"/>
<rect x="213.415" y="79.268" width="6.098" height="6.098" fill="#000000"/>
<rect x="36.585" y="85.366" width="6.098" height="6.098" fill="#000000"/>
<rect x="60.976" y="85.366" width="6.098" height="6.098" fill="#000000"/>
<rect x="67.073" y="85.366" width="6.098" height="6.098" fill="#000000"/>
<rect x="73.171" y="85.366" width="6.098" height="6.098" fill="#000000"/>
<rect x="79.268" y="85.366" width="6.098" height="6.098" fill="#000000"/>
<rect x="85.366" y="85.366" width="6.098" height="6.098" fill="#000000"/>
<rect x="91.463" y="85.366" width="6.098" height="6.098" fill="#000000"/>
<rect x="103.659" y="85.366" width="6.098" height="6.098" fill="#000000"/>
<rect x="121.951" y="85.366" width="6.098" height="6.098" fill="#000000"/>
<rect x="128.049" y="85.366" width="6.098" height="6.098" fill="#000000"/>
<rect x="152.439" y="85.366" width="6.098" height="6.098" fill="#000000"/>
<rect x="158.537" y="85.366" width="6.098" height="6.098" fill="#000000"/>
<rect x="164.634" y="85.366" width="6.098" height="6.098" fill="#000000"/>
<rect x="182.927" y="85.366" width="6.098" height="6.098" fill="#000000"/>
<rect x="201.220" y="85.366" width="6.098" height="6.098" fill="#000000"/>
<rect x="213.415" y="85.366" width="6.098" height="6.098" fill="#000000"/>
<rect x="24.390" y="91.463" width="6.098" height="6.098" fill="#000000"/>
<rect x="30.488" y="91.463" width="6.098" height="6.098" fill="#000000"/>
<rect x="36.585" y="91.463" width="6.098" height="6.098" fill="#000000"/>
<rect x="48.780" y="91.463" width="6.098" height="6.098" fill="#000000"/>
<rect x="54.878" y="91.463" width="6.098" height="6.098" fill="#000000"/>
<rect x="67.073" y="91.463" width="6.098" height="6.098" fill="#000000"/>
<rect x="91.463" y="91.463" width="6.098" height="6.098" fill="#000000"/>
<rect x="97.561" y="91.463" width="6.098" height="6.098" fill="#000000"/>
<rect x="103.659" y="91.463" width="6.098" height="6.098" fill="#000000"/>
<rect x="115.854" y="91.463" width="6.098" height="6.098" fill="#000000"/>
<rect x="128.049" y="91.463" width="6.098" height="6.098" fill="#000000"/>
<rect x="134.146" y="91.463" width="6.098" height="6.098" fill="#000000"/>
<rect x="146.341" y="91.463" width="6.098" height="6.098" fill="#000000"/>
<rect x="152.439" y="91.463" width="6.098" height="6.098" fill="#000000"/>
<rect x="164.634" y="91.463" width="6.098" height="6.098" fill="#000000"/>
<rect x="170.732" y="91.463" width="6.098" height="6.098" fill="#000000"/>
<rect x="176.829" y="91.463" width="6.098" height="6.098" fill="#000000"/>
<rect x="213.415" y="91.463" width="6.098" height="6.098" fill="#000000"/>
<rect x="219.512" y="91.463" width="6.098" height="6.098" fill="#000000"/>
<rect x="24.390" y="97.561" width="6.098" height="6.098" fill="#000000"/>
<rect x="36.585" y="97.561" width="6.098" height="6.098" fill="#000000"/>
<rect x="48.780" y="97.561" width="6.098" height="6.098" fill="#000000"/>
<rect x="54.878" y="97.561" width="6.098" height="6.098" fill="#000000"/>
<rect x="60.976" y="97.561" width="6.098" height="6.098" fill="#000000"/>
<rect x="73.171" y="97.561" width="6.098" height="6.098" fill="#000000"/>
<rect x="79.268" y="97.561" width="6.098" height="6.098" fill="#000000"/>
<rect x="85.366" y="97.561" width="6.098" height="6.098" fill="#000000"/>
<rect x="91.463" y="97.561" width="6.098" height="6.098" fill="#000000"/>
<rect x="109.756" y="97.561" width="6.098" height="6.098" fill="#000000"/>
<rect x="121.951" y="97.561" width="6.098" height="6.098" fill="#000000"/>
<rect x="134.146" y="97.561" width="6.098" height="6.098" fill="#000000"/>
<rect x="140.244" y="97.561" width="6.098" height="6.098" fill="#000000"/>
<rect x="146.341" y="97.561" width="6.098" height="6.098" fill="#000000"/>
<rect x="164.634" y="97.561" width="6.098" height="6.098" fill="#000000"/>
<rect x="170.732" y="97.561" width="6.098" height="6.098" fill="#000000"/>
<rect x="182.927" y="97.561" width="6.098" height="6.098" fill="#000000"/>
<rect x="195.122" y="97.561" width="6.098" height="6.098" fill="#000000"/>
<rect x="201.220" y="97.561" width="6.098" height="6.098" fill="#000000"/>
<rect x="42.683" y="103.659" width="6.098" height="6.098" fill="#000000"/>
<rect x="48.780" y="103.659" width="6.098" height="6.098" fill="#000000"/>
<rect x="91.463" y="103.659" width="6.098" height="6.098" fill="#000000"/>
<rect x="109.756" y="103.659" width="6.098" height="6.098" fill="#000000"/>
<rect x="121.951" y="103.659" width="6.098" height="6.098" fill="#000000"/>
<rect x="140.244" y="103.659" width="6.098" height="6.098" fill="#000000"/>
<rect x="152.439" y="103.659" width="6.098" height="6.098" fill="#000000"/>
<rect x="158.537" y="103.659" width="6.098" height="6.098" fill="#000000"/>
<rect x="176.829" y="103.659" width="6.098" height="6.098" fill="#000000"/>
<rect x="189.024" y="103.659" width="6.098" height="6.098" fill="#000000"/>
<rect x="201.220" y="103.659" width="6.098" height="6.098" fill="#000000"/>
<rect x="207.317" y="103.659" width="6.098" height="6.098" fill="#000000"/>
<rect x="24.390" y="109.756" width="6.098" height="6.098" fill="#000000"/>
<rect x="42.683" y="109.756" width="6.098" height="6.098" fill="#000000"/>
<rect x="54.878" y="109.756" width="6.098" height="6.098" fill="#000000"/>
<rect x="60.976" y="109.756" width="6.098" height="6.098" fill="#000000"/>
<rect x="109.756" y="109.756" width="6.098" height="6.098" fill="#000000"/>
<rect x="128.049" y="109.756" width="6.098" height="6.098" fill="#000000"/>
<rect x="134.146" y="109.756" width="6.098" height="6.098" fill="#000000"/>
<rect x="140.244" y="109.756" width="6.098" height="6.098" fill="#000000"/>
<rect x="176.829" y="109.756" width="6.098" height="6.098" fill="#000000"/>
<rect x="182.927" y="109.756" width="6.098" height="6.098" fill="#000000"/>
<rect x="189.024" y="109.756" width="6.098" height="6.098" fill="#000000"/>
<rect x="195.122" y="109.756" width="6.098" height="6.098" fill="#000000"/>
<rect x="201.220" y="109.756" width="6.098" height="6.098" fill="#000000"/>
<rect x="213.415" y="109.756" width="6.098" height="6.098" fill="#000000"/>
<rect x="24.390" y="115.854" width="6.098" height="6.098" fill="#000000"/>
<rect x="30.488" y="115.854" width="6.098" height="6.098" fill="#000000"/>
<rect x="48.780" y="115.854" width="6.098" height="6.098" fill="#000000"/>
<rect x="67.073" y="115.854" width="6.098" height="6.098" fill="#000000"/>
<rect x="73.171" y="115.854" width="6.098" height="6.098" fill="#000000"/>
<rect x="79.268" y="115.854" width="6.098" height="6.098" fill="#000000"/>
<rect x="85.366" y="115.854" width="6.098" height="6.098" fill="#000000"/>
<rect x="97.561" y="115.854" width="6.098" height="6.098" fill="#000000"/>
<rect x="103.659" y="115.854" width="6.098" height="6.098" fill="#000000"/>
<rect x="115.854" y="115.854" width="6.098" height="6.098" fill="#000000"/>
<rect x="121.951" y="115.854" width="6.098" height="6.098" fill="#000000"/>
<rect x="134.146" y="115.854" width="6.098" height="6.098" fill="#000000"/>
<rect x="140.244" y="115.854" width="6.098" height="6.098" fill="#000000"/>
<rect x="146.341" y="115.854" width="6.098" height="6.098" fill="#000000"/>
<rect x="152.439" y="115.854" width="6.098" height="6.098" fill="#000000"/>
<rect x="158.537" y="115.854" width="6.098" height="6.098" fill="#000000"/>
<rect x="170.732" y="115.854" width="6.098" height="6.098" fill="#000000"/>
<rect x="176.829" y="115.854" width="6.098" height="6.098" fill="#000000"/>
<rect x="182.927" y="115.854" width="6.098" height="6.098" fill="#000000"/>
<rect x="195.122" y="115.854" width="6.098" height="6.098" fill="#000000"/>
<rect x="30.488" y="121.951" width="6.098" height="6.098" fill="#000000"/>
<rect x="36.585" y="121.951" width="6.098" height="6.098" fill="#000000"/>
<rect x="48.780" y="121.951" width="6.098" height="6.098" fill="#000000"/>
<rect x="60.976" y="121.951" width="6.098" height="6.098" fill="#000000"/>
<rect x="67.073" y="121.951" width="6.098" height="6.098" fill="#000000"/>
<rect x="73.171" y="121.951" width="6.098" height="6.098" fill="#000000"/>
<rect x="79.268" y="121.951" width="6.098" height="6.098" fill="#000000"/>
<rect x="91.463" y="121.951" width="6.098" height="6.098" fill="#000000"/>
<rect x="103.659" y="121.951" width="6.098" height="6.098" fill="#000000"/>
<rect x="121.951" y="121.951" width="6.098" height="6.098" fill="#000000"/>
<rect x="146.341" y="121.951" width="6.098" height="6.098" fill="#000000"/>
<rect x="152.439" y="121.951" width="6.098" height="6.098" fill="#000000"/>
<rect x="158.537" y="121.951" width="6.098" height="6.098" fill="#000000"/>
<rect x="164.634" y="121.951" width="6.098" height="6.098" fill="#000000"/>
<rect x="170.732" y="121.951" width="6.098" height="6.098" fill="#000000"/>
<rect x="182.927" y="121.951" width="6.098" height="6.098" fill="#000000"/>
<rect x="195.122" y="121.951" width="6.098" height="6.098" fill="#000000"/>
<rect x="213.415" y="121.951" width="6.098" height="6.098" fill="#000000"/>
<rect x="30.488" y="128.049" width="6.098" height="6.098" fill="#000000"/>
<rect x="36.585" y="128.049" width="6.098" height="6.098" fill="#000000"/>
<rect x="73.171" y="128.049" width="6.098" height="6.098" fill="#000000"/>
<rect x="79.268" y="128.049" width="6.098" height="6.098" fill="#000000"/>
<rect x="91.463" y="128.049" width="6.098" height="6.098" fill="#000000"/>
<rect x="97.561" y="128.049" width="6.098" height="6.098" fill="#000000"/>
<rect x="103.659" y="128.049" width="6.098" height="6.098" fill="#000000"/>
<rect x="109.756" y="128.049" width="6.098" height="6.098" fill="#000000"/>
<rect x="115.854" y="128.049" width="6.098" height="6.098" fill="#000000"/>
<rect x="121.951" y="128.049" width="6.098" height="6.098" fill="#000000"/>
<rect x="152.439" y="128.049" width="6.098" height="6.098" fill="#000000"/>
<rect x="164.634" y="128.049" width="6.098" height="6.098" fill="#000000"/>
<rect x="201.220" y="128.049" width="6.098" height="6.098" fill="#000000"/>
<rect x="207.317" y="128.049" width="6.098" height="6.098" fill="#000000"/>
<rect x="213.415" y="128.049" width="6.098" height="6.098" fill="#000000"/>
<rect x="42.683" y="134.146" width="6.098" height="6.098" fill="#000000"/>
<rect x="48.780" y="134.146" width="6.098" height="6.098" fill="#000000"/>
<rect x="54.878" y="134.146" width="6.098" height="6.098" fill="#000000"/>
<rect x="60.976" y="134.146" width="6.098" height="6.098" fill="#000000"/>
<rect x="73.171" y="134.146" width="6.098" height="6.098" fill="#000000"/>
<rect x="79.268" y="134.146" width="6.098" height="6.098" fill="#000000"/>
<rect x="97.561" y="134.146" width="6.098" height="6.098" fill="#000000"/>
<rect x="103.659" y="134.146" width="6.098" height="6.098" fill="#000000"/>
<rect x="115.854" y="134.146" width="6.098" height="6.098" fill="#000000"/>
<rect x="134.146" y="134.146" width="6.098" height="6.098" fill="#000000"/>
<rect x="146.341" y="134.146" width="6.098" height="6.098" fill="#000000"/>
<rect x="164.634" y="134.146" width="6.098" height="6.098" fill="#000000"/>
<rect x="170.732" y="134.146" width="6.098" height="6.098" fill="#000000"/>
<rect x="176.829" y="134.146" width="6.098" height="6.098" fill="#000000"/>
<rect x="182.927" y="134.146" width="6.098" height="6.098" fill="#000000"/>
<rect x="189.024" y="134.146" width="6.098" height="6.098" fill="#000000"/>
<rect x="201.220" y="134.146" width="6.098" height="6.098" fill="#000000"/>
<rect x="24.390" y="140.244" width="6.098" height="6.098" fill="#000000"/>
<rect x="30.488" y="140.244" width="6.098" height="6.098" fill="#000000"/>
<rect x="42.683" y="140.244" width="6.098" height="6.098" fill="#000000"/>
<rect x="48.780" y="140.244" width="6.098" height="6.098" fill="#000000"/>
<rect x="54.878" y="140.244" width="6.098" height="6.098" fill="#000000"/>
<rect x="73.171" y="140.244" width="6.098" height="6.098" fill="#000000"/>
<rect x="79.268" y="140.244" width="6.098" height="6.098" fill="#000000"/>
<rect x="85.366" y="140.244" width="6.098" height="6.098" fill="#000000"/>
<rect x="91.463" y="140.244" width="6.098" height="6.098" fill="#000000"/>
<rect x="97.561" y="140.244" width="6.098" height="6.098" fill="#000000"/>
<rect x="109.756" y="140.244" width="6.098" height="6.098" fill="#000000"/>
<rect x="115.854" y="140.244" width="6.098" height="6.098" fill="#000000"/>
<rect x="158.537" y="140.244" width="6.098" height="6.098" fill="#000000"/>
<rect x="176.829" y="140.244" width="6.098" height="6.098" fill="#000000"/>
<rect x="182.927" y="140.244" width="6.098" height="6.098" fill="#000000"/>
<rect x="189.024" y="140.244" width="6.098" height="6.098" fill="#000000"/>
<rect x="213.415" y="140.244" width="6.098" height="6.098" fill="#000000"/>
<rect x="36.585" y="146.341" width="6.098" height="6.098" fill="#000000"/>
<rect x="42.683" y="146.341" width="6.098" height="6.098" fill="#000000"/>
<rect x="60.976" y="146.341" width="6.098" height="6.098" fill="#000000"/>
<rect x="85.366" y="146.341" width="6.098" height="6.098" fill="#000000"/>
<rect x="109.756" y="146.341" width="6.098" height="6.098" fill="#000000"/>
<rect x="115.854" y="146.341" width="6.098" height="6.098" fill="#000000"/>
<rect x="121.951" y="146.341" width="6.098" height="6.098" fill="#000000"/>
<rect x="158.537" y="146.341" width="6.098" height="6.098" fill="#000000"/>
<rect x="170.732" y="146.341" width="6.098" height="6.098" fill="#000000"/>
<rect x="182.927" y="146.341" width="6.098" height="6.098" fill="#000000"/>
<rect x="189.024" y="146.341" width="6.098" height="6.098" fill="#000000"/>
<rect x="195.122" y="146.341" width="6.098" height="6.098" fill="#000000"/>
<rect x="201.220" y="146.341" width="6.098" height="6.098" fill="#000000"/>
<rect x="24.390" y="152.439" width="6.098" height="6.098" fill="#000000"/>
<rect x="36.585" y="152.439" width="6.098" height="6.098" fill="#000000"/>
<rect x="48.780" y="152.439" width="6.098" height="6.098" fill="#000000"/>
<rect x="54.878" y="152.439" width="6.098" height="6.098" fill="#000000"/>
<rect x="67.073" y="152.439" width="6.098" height="6.098" fill="#000000"/>
<rect x="85.366" y="152.439" width="6.098" height="6.098" fill="#000000"/>
<rect x="91.463" y="152.439" width="6.098" height="6.098" fill="#000000"/>
<rect x="103.659" y="152.439" width="6.098" height="6.098" fill="#000000"/>
<rect x="115.854" y="152.439" width="6.098" height="6.098" fill="#000000"/>
<rect x="121.951" y="152.439" width="6.098" height="6.098" fill="#000000"/>
<rect x="128.049" y="152.439" width="6.098" height="6.098" fill="#000000"/>
<rect x="140.244" y="152.439" width="6.098" height="6.098" fill="#000000"/>
<rect x="146.341" y="152.439" width="6.098" height="6.098" fill="#000000"/>
<rect x="170.732" y="152.439" width="6.098" height="6.098" fill="#000000"/>
<rect x="176.829" y="152.439" width="6.098" height="6.098" fill="#000000"/>
<rect x="189.024" y="152.439" width="6.098" height="6.098" fill="#000000"/>
<rect x="201.220" y="152.439" width="6.098" height="6.098" fill="#000000"/>
<rect x="213.415" y="152.439" width="6.098" height="6.098" fill="#000000"/>
<rect x="36.585" y="158.537" width="6.098" height="6.098" fill="#000000"/>
<rect x="54.878" y="158.537" width="6.098" height="6.098" fill="#000000"/>
<rect x="60.976" y="158.537" width="6.098" height="6.098" fill="#000000"/>
<rect x="73.171" y="158.537" width="6.098" height="6.098" fill="#000000"/>
<rect x="79.268" y="158.537" width="6.098" height="6.098" fill="#000000"/>
<rect x="85.366" y="158.537" width="6.098" height="6.098" fill="#000000"/>
<rect x="103.659" y="158.537" width="6.098" height="6.098" fill="#000000"/>
<rect x="109.756" y="158.537" width="6.098" height="6.098" fill="#000000"/>
<rect x="121.951" y="158.537" width="6.098" height="6.098" fill="#000000"/>
<rect x="128.049" y="158.537" width="6.098" height="6.098" fill="#000000"/>
<rect x="146.341" y="158.537" width="6.098" height="6.098" fill="#000000"/>
<rect x="152.439" y="158.537" width="6.098" height="6.098" fill="#000000"/>
<rect x="164.634" y="158.537" width="6.098" height="6.098" fill="#000000"/>
<rect x="170.732" y="158.537" width="6.098" height="6.098" fill="#000000"/>
<rect x="176.829" y="158.537" width="6.098" height="6.098" fill="#000000"/>
<rect x="195.122" y="158.537" width="6.098" height="6.098" fill="#000000"/>
<rect x="207.317" y="158.537" width="6.098" height="6.098" fill="#000000"/>
<rect x="213.415" y="158.537" width="6.098" height="6.098" fill="#000000"/>
<rect x="54.878" y="164.634" width="6.098" height="6.098" fill="#000000"/>
<rect x="85.366" y="164.634" width="6.098" height="6.098" fill="#000000"/>
<rect x="91.463" y="164.634" width="6.098" height="6.098" fill="#000000"/>
<rect x="97.561" y="164.634" width="6.098" height="6.098" fill="#000000"/>
<rect x="115.854" y="164.634" width="6.098" height="6.098" fill="#000000"/>
<rect x="128.049" y="164.634" width="6.098" height="6.098" fill="#000000"/>
<rect x="134.146" y="164.634" width="6.098" height="6.098" fill="#000000"/>
<rect x="152.439" y="164.634" width="6.098" height="6.098" fill="#000000"/>
<rect x="158.537" y="164.634" width="6.098" height="6.098" fill="#000000"/>
<rect x="189.024" y="164.634" width="6.098" height="6.098" fill="#000000"/>
<rect x="195.122" y="164.634" width="6.098" height="6.098" fill="#000000"/>
<rect x="219.512" y="164.634" width="6.098" height="6.098" fill="#000000"/>
<rect x="24.390" y="170.732" width="6.098" height="6.098" fill="#000000"/>
<rect x="30.488" y="170.732" width="6.098" height="6.098" fill="#000000"/>
<rect x="60.976" y="170.732" width="6.098" height="6.098" fill="#000000"/>
<rect x="79.268" y="170.732" width="6.098" height="6.098" fill="#000000"/>
<rect x="103.659" y="170.732" width="6.098" height="6.098" fill="#000000"/>
<rect x="140.244" y="170.732" width="6.098" height="6.098" fill="#000000"/>
<rect x="146.341" y="170.732" width="6.098" height="6.098" fill="#000000"/>
<rect x="152.439" y="170.732" width="6.098" height="6.098" fill="#000000"/>
<rect x="158.537" y="170.732" width="6.098" height="6.098" fill="#000000"/>
<rect x="170.732" y="170.732" width="6.098" height="6.098" fill="#000000"/>
<rect x="176.829" y="170.732" width="6.098" height="6.098" fill="#000000"/>
<rect x="182.927" y="170.732" width="6.098" height="6.098" fill="#000000"/>
<rect x="189.024" y="170.732" width="6.098" height="6.098" fill="#000000"/>
<rect x="195.122" y="170.732" width="6.098" height="6.098" fill="#000000"/>
<rect x="213.415" y="170.732" width="6.098" height="6.098" fill="#000000"/>
<rect x="219.512" y="170.732" width="6.098" height="6.098" fill="#000000"/>
<rect x="73.171" y="176.829" width="6.098" height="6.098" fill="#000000"/>
<rect x="79.268" y="176.829" width="6.098" height="6.098" fill="#000000"/>
<rect x="115.854" y="176.829" width="6.098" height="6.098" fill="#000000"/>
<rect x="121.951" y="176.829" width="6.098" height="6.098" fill="#000000"/>
<rect x="128.049" y="176.829" width="6.098" height="6.098" fill="#000000"/>
<rect x="134.146" y="176.829" width="6.098" height="6.098" fill="#000000"/>
<rect x="158.537" y="176.829" width="6.098" height="6.098" fill="#000000"/>
<rect x="164.634" y="176.829" width="6.098" height="6.098" fill="#000000"/>
<rect x="170.732" y="176.829" width="6.098" height="6.098" fill="#000000"/>
<rect x="195.122" y="176.829" width="6.098" height="6.098" fill="#000000"/>
<rect x="207.317" y="176.829" width="6.098" height="6.098" fill="#000000"/>
<rect x="213.415" y="176.829" width="6.098" height="6.098" fill="#000000"/>
<rect x="24.390" y="182.927" width="6.098" height="6.098" fill="#000000"/>
<rect x="30.488" y="182.927" width="6.098" height="6.098" fill="#000000"/>
<rect x="36.585" y="182.927" width="6.098" height="6.098" fill="#000000"/>
<rect x="42.683" y="182.927" width="6.098" height="6.098" fill="#000000"/>
<rect x="48.780" y="182.927" width="6.098" height="6.098" fill="#000000"/>
<rect x="54.878" y="182.927" width="6.098" height="6.098" fill="#000000"/>
<rect x="60.976" y="182.927" width="6.098" height="6.098" fill="#000000"/>
<rect x="85.366" y="182.927" width="6.098" height="6.098" fill="#000000"/>
<rect x="97.561" y="182.927" width="6.098" height="6.098" fill="#000000"/>
<rect x="103.659" y="182.927" width="6.098" height="6.098" fill="#000000"/>
<rect x="109.756" y="182.927" width="6.098" height="6.098" fill="#000000"/>
<rect x="115.854" y="182.927" width="6.098" height="6.098" fill="#000000"/>
<rect x="128.049" y="182.927" width="6.098" height="6.098" fill="#000000"/>
<rect x="134.146" y="182.927" width="6.098" height="6.098" fill="#000000"/>
<rect x="146.341" y="182.927" width="6.098" height="6.098" fill="#000000"/>
<rect x="152.439" y="182.927" width="6.098" height="6.098" fill="#000000"/>
<rect x="158.537" y="182.927" width="6.098" height="6.098" fill="#000000"/>
<rect x="170.732" y="182.927" width="6.098" height="6.098" fill="#000000"/>
<rect x="182.927" y="182.927" width="6.098" height="6.098" fill="#000000"/>
<rect x="195.122" y="182.927" width="6.098" height="6.098" fill="#000000"/>
<rect x="201.220" y="182.927" width="6.098" height="6.098" fill="#000000"/>
<rect x="213.415" y="182.927" width="6.098" height="6.098" fill="#000000"/>
<rect x="24.390" y="189.024" width="6.098" height="6.098" fill="#000000"/>
<rect x="60.976" y="189.024" width="6.098" height="6.098" fill="#000000"/>
<rect x="85.366" y="189.024" width="6.098" height="6.098" fill="#000000"/>
<rect x="91.463" y="189.024" width="6.098" height="6.098" fill="#000000"/>
<rect x="97.561" y="189.024" width="6.098" height="6.098" fill="#000000"/>
<rect x="121.951" y="189.024" width="6.098" height="6.098" fill="#000000"/>
<rect x="140.244" y="189.024" width="6.098" height="6.098" fill="#000000"/>
<rect x="146.341" y="189.024" width="6.098" height="6.098" fill="#000000"/>
<rect x="152.439" y="189.024" width="6.098" height="6.098" fill="#000000"/>
<rect x="170.732" y="189.024" width="6.098" height="6.098" fill="#000000"/>
<rect x="195.122" y="189.024" width="6.098" height="6.098" fill="#000000"/>
<rect x="213.415" y="189.024" width="6.098" height="6.098" fill="#000000"/>
<rect x="219.512" y="189.024" width="6.098" height="6.098" fill="#000000"/>
<rect x="24.390" y="195.122" width="6.098" height="6.098" fill="#000000"/>
<rect x="36.585" y="195.122" width="6.098" height="6.098" fill="#000000"/>
<rect x="42.683" y="195.122" width="6.098" height="6.098" fill="#000000"/>
<rect x="48.780" y="195.122" width="6.098" height="6.098" fill="#000000"/>
<rect x="60.976" y="195.122" width="6.098" height="6.098" fill="#000000"/>
<rect x="73.171" y="195.122" width="6.098" height="6.098" fill="#000000"/>
<rect x="79.268" y="195.122" width="6.098" height="6.098" fill="#000000"/>
<rect x="91.463" y="195.122" width="6.098" height="6.098" fill="#000000"/>
<rect x="97.561" y="195.122" width="6.098" height="6.098" fill="#000000"/>
<rect x="115.854" y="195.122" width="6.098" height="6.098" fill="#000000"/>
<rect x="134.146" y="195.122" width="6.098" height="6.098" fill="#000000"/>
<rect x="146.341" y="195.122" width="6.098" height="6.098" fill="#000000"/>
<rect x="170.732" y="195.122" width="6.098" height="6.098" fill="#000000"/>
<rect x="176.829" y="195.122" width="6.098" height="6.098" fill="#000000"/>
<rect x="182.927" y="195.122" width="6.098" height="6.098" fill="#000000"/>
<rect x="189.024" y="195.122" width="6.098" height="6.098" fill="#000000"/>
<rect x="195.122" y="195.122" width="6.098" height="6.098" fill="#000000"/>
<rect x="201.220" y="195.122" width="6.098" height="6.098" fill="#000000"/>
<rect x="24.390" y="201.220" width="6.098" height="6.098" fill="#000000"/>
<rect x="36.585" y="201.220" width="6.098" height="6.098" fill="#000000"/>
<rect x="42.683" y="201.220" width="6.098" height="6.098" fill="#000000"/>
<rect x="48.780" y="201.220" width="6.098" height="6.098" fill="#000000"/>
<rect x="60.976" y="201.220" width="6.098" height="6.098" fill="#000000"/>
<rect x="79.268" y="201.220" width="6.098" height="6.098" fill="#000000"/>
<rect x="85.366" y="201.220" width="6.098" height="6.098" fill="#000000"/>
<rect x="103.659" y="201.220" width="6.098" height="6.098" fill="#000000"/>
<rect x="121.951" y="201.220" width="6.098" height="6.098" fill="#000000"/>
<rect x="134.146" y="201.220" width="6.098" height="6.098" fill="#000000"/>
<rect x="140.244" y="201.220" width="6.098" height="6.098" fill="#000000"/>
<rect x="158.537" y="201.220" width="6.098" height="6.098" fill="#000000"/>
<rect x="164.634" y="201.220" width="6.098" height="6.098" fill="#000000"/>
<rect x="170.732" y="201.220" width="6.098" height="6.098" fill="#000000"/>
<rect x="182.927" y="201.220" width="6.098" height="6.098" fill="#000000"/>
<rect x="189.024" y="201.220" width="6.098" height="6.098" fill="#000000"/>
<rect x="195.122" y="201.220" width="6.098" height="6.098" fill="#000000"/>
<rect x="201.220" y="201.220" width="6.098" height="6.098" fill="#000000"/>
<rect x="213.415" y="201.220" width="6.098" height="6.098" fill="#000000"/>
<rect x="24.390" y="207.317" width="6.098" height="6.098" fill="#000000"/>
<rect x="36.585" y="207.317" width="6.098" height="6.098" fill="#000000"/>
<rect x="42.683" y="207.317" width="6.098" height="6.098" fill="#000000"/>
<rect x="48.780" y="207.317" width="6.098" height="6.098" fill="#000000"/>
<rect x="60.976" y="207.317" width="6.098" height="6.098" fill="#000000"/>
<rect x="97.561" y="207.317" width="6.098" height="6.098" fill="#000000"/>
<rect x="109.756" y="207.317" width="6.098" height="6.098" fill="#000000"/>
<rect x="128.049" y="207.317" width="6.098" height="6.098" fill="#000000"/>
<rect x="134.146" y="207.317" width="6.098" height="6.098" fill="#000000"/>
<rect x="140.244" y="207.317" width="6.098" height="6.098" fill="#000000"/>
<rect x="158.537" y="207.317" width="6.098" height="6.098" fill="#000000"/>
<rect x="182.927" y="207.317" width="6.098" height="6.098" fill="#000000"/>
<rect x="189.024" y="207.317" width="6.098" height="6.098" fill="#000000"/>
<rect x="195.122" y="207.317" width="6.098" height="6.098" fill="#000000"/>
<rect x="201.220" y="207.317" width="6.098" height="6.098" fill="#000000"/>
<rect x="207.317" y="207.317" width="6.098" height="6.098" fill="#000000"/>
<rect x="24.390" y="213.415" width="6.098" height="6.098" fill="#000000"/>
<rect x="60.976" y="213.415" width="6.098" height="6.098" fill="#000000"/>
<rect x="73.171" y="213.415" width="6.098" height="6.098" fill="#000000"/>
<rect x="79.268" y="213.415" width="6.098" height="6.098" fill="#000000"/>
<rect x="103.659" y="213.415" width="6.098" height="6.098" fill="#000000"/>
<rect x="109.756" y="213.415" width="6.098" height="6.098" fill="#000000"/>
<rect x="140.244" y="213.415" width="6.098" height="6.098" fill="#000000"/>
<rect x="146.341" y="213.415" width="6.098" height="6.098" fill="#000000"/>
<rect x="152.439" y="213.415" width="6.098" height="6.098" fill="#000000"/>
<rect x="158.537" y="213.415" width="6.098" height="6.098" fill="#000000"/>
<rect x="170.732" y="213.415" width="6.098" height="6.098" fill="#000000"/>
<rect x="176.829" y="213.415" width="6.098" height="6.098" fill="#000000"/>
<rect x="182.927" y="213.415" width="6.098" height="6.098" fill="#000000"/>
<rect x="24.390" y="219.512" width="6.098" height="6.098" fill="#000000"/>
<rect x="30.488" y="219.512" width="6.098" height="6.098" fill="#000000"/>
<rect x="36.585" y="219.512" width="6.098" height="6.098" fill="#000000"/>
<rect x="42.683" y="219.512" width="6.098" height="6.098" fill="#000000"/>
<rect x="48.780" y="219.512" width="6.098" height="6.098" fill="#000000"/>
<rect x="54.878" y="219.512" width="6.098" height="6.098" fill="#000000"/>
<rect x="60.976" y="219.512" width="6.098" height="6.098" fill="#000000"/>
<rect x="79.268" y="219.512" width="6.098" height="6.098" fill="#000000"/>
<rect x="85.366" y="219.512" width="6.098" height="6.098" fill="#000000"/>
<rect x="91.463" y="219.512" width="6.098" height="6.098" fill="#000000"/>
<rect x="97.561" y="219.512" width="6.098" height="6.098" fill="#000000"/>
<rect x="103.659" y="219.512" width="6.098" height="6.098" fill="#000000"/>
<rect x="134.146" y="219.512" width="6.098" height="6.098" fill="#000000"/>
<rect x="146.341" y="219.512" width="6.098" height="6.098" fill="#000000"/>
<rect x="152.439" y="219.512" width="6.098" height="6.098" fill="#000000"/>
<rect x="158.537" y="219.512" width="6.098" height="6.098" fill="#000000"/>
<rect x="164.634" y="219.512" width="6.098" height="6.098" fill="#000000"/>
<rect x="170.732" y="219.512" width="6.098" height="6.098" fill="#000000"/>
<rect x="176.829" y="219.512" width="6.098" height="6.098" fill="#000000"/>
<rect x="219.512" y="219.512" width="6.098" height="6.098" fill="#000000"/>
</svg>
